<?xml version="1.0" standalone="no"?><!DOCTYPE svg PUBLIC "-//W3C//DTD SVG 1.1//EN" "http://www.w3.org/Graphics/SVG/1.1/DTD/svg11.dtd"><svg t="1715669935666" class="icon" viewBox="0 0 1149 1024" version="1.1" xmlns="http://www.w3.org/2000/svg" p-id="7335" xmlns:xlink="http://www.w3.org/1999/xlink" width="224.4140625" height="200"><path d="M1069.562991 81.377144c-106.467574-106.467574-281.407909-106.467574-395.494971 0l-30.426637 38.033296s-1.98825 0.282203-7.593831 7.606659l-220.6316 228.161295c-22.819978 22.819978-45.639955 68.459933 0 114.087061 30.426637 30.41381 83.660424 38.020469 106.467574 7.606659l197.82445-205.354144 273.80125 281.407909 76.053765-76.053765c106.467574-106.467574 106.467574-281.407909 0-395.49497zM172.054166 651.825277a60.853274 60.853274 0 1 0 60.853274-60.840447 60.853274 60.853274 0 0 0-60.853274 60.840447M293.747886 781.125656a60.853274 60.853274 0 1 0 60.840447-60.853274A60.840446 60.840446 0 0 0 293.747886 781.125656" fill="#FFC15E" p-id="7336"></path><path d="M894.635483 514.892583L719.707976 339.965075 559.993787 507.285924c-22.819978 22.819978-53.246615 38.071778-91.279911 38.071778-30.41381 0-68.447106-15.213318-91.254256-38.033296-53.246615-53.233787-53.246615-129.287552 0-182.534167l159.714189-167.35933-68.459933-76.053765c-106.467574-106.467574-281.407909-106.467574-395.482143 0-98.873743 114.087061-98.873743 289.014569 7.606659 403.101629 0 0 38.033296 38.020469 91.267083 91.267084 15.200491-15.213318 38.020469-22.819978 60.840447-22.819978 53.233787 0 98.873743 45.639955 98.873743 98.873743 0 7.606659 0 22.819978-7.60666 30.426637 7.606659 0 22.819978-7.606659 30.426637-7.60666 53.233787 0 98.873743 45.627128 98.873743 98.873743 0 15.213318 0 22.819978-7.606659 30.41381 15.213318 7.606659 30.41381 0 38.020468 0 53.246615 0 98.873743 45.639955 98.873743 98.88657 0 22.80715-7.606659 45.627128-22.80715 60.840446l45.627128 45.627128s68.447106 38.033296 114.087061-15.213318c22.819978-22.80715 15.213318-68.447106 0-91.254256-53.246615-53.246615-212.935149-220.567463-212.935149-220.567463l30.400982-30.400982s159.714189 167.320848 212.935149 220.567462c15.200491 15.200491 68.447106 22.80715 98.860915-15.213318s15.226146-76.053765 0-91.267083L643.654211 560.532538l30.413809-30.426637 212.935149 212.935149c15.213318 15.213318 76.053765 7.606659 98.873743-15.213318 68.447106-83.660424-15.213318-136.894211-91.267083-212.935149z m0 0" fill="#A374D5" p-id="7337"></path><path d="M423.086748 910.387553a60.840446 60.840446 0 1 0 60.840446-60.840446 60.853274 60.853274 0 0 0-60.840446 60.840446" fill="#FFC15E" p-id="7338"></path></svg>